<svg width="205" height="49" viewBox="0 0 205 49" fill="none" xmlns="http://www.w3.org/2000/svg">
<path d="M39.7729 13.8786L25.1586 5.57428C24.4473 5.16876 23.5599 5.16876 22.8485 5.57428L8.23074 13.8786C7.51939 14.2841 7.07568 15.0397 7.07568 15.8473V32.456C7.07568 33.267 7.51939 34.0191 8.23074 34.4246L22.845 42.7289C23.2007 42.93 23.6021 43.0339 24 43.0339C24.398 43.0339 24.7994 42.9334 25.1551 42.7289L39.7693 34.4246C40.4807 34.0191 40.9244 33.2635 40.9244 32.456V15.8473C40.9244 15.0362 40.4807 14.2841 39.7693 13.8786H39.7729ZM24.6691 41.9006C24.2571 42.1328 23.7465 42.1328 23.3345 41.9006L8.72023 33.5962C8.30821 33.364 8.05466 32.9273 8.05466 32.4594V15.8507C8.05466 15.3828 8.31173 14.9461 8.72023 14.7139L23.3345 6.4061C23.5387 6.28826 23.7711 6.22933 24 6.22933C24.2289 6.22933 24.4614 6.28826 24.6656 6.4061L39.2799 14.7104C39.6919 14.9427 39.9454 15.3794 39.9454 15.8473V32.456C39.9454 32.5807 39.9243 32.7055 39.8891 32.8233C39.632 32.5495 39.3362 32.3139 39.0017 32.1232L25.9122 24.6854C24.729 24.013 23.2605 24.013 22.0773 24.6854L9.90345 31.6033L10.3929 32.4352L22.5668 25.5172C23.4472 25.0146 24.5459 25.0146 25.4263 25.5172L38.5157 32.955C38.8115 33.1214 39.065 33.3363 39.2799 33.5893L24.6656 41.8937L24.6691 41.9006Z" fill="#4BC5DB"/>
<path d="M39.7729 13.8786V14.3515C39.9875 14.3515 40.1752 14.207 40.2301 13.9995C40.2849 13.7919 40.1931 13.5735 40.0065 13.4675L39.7729 13.8786ZM25.1586 5.57428L24.9244 5.98512L24.925 5.98544L25.1586 5.57428ZM22.8485 5.57428L23.0821 5.98546L23.0827 5.98512L22.8485 5.57428ZM8.23074 13.8786L7.99714 13.4674L7.99653 13.4678L8.23074 13.8786ZM8.23074 34.4246L7.99653 34.8354L7.9971 34.8358L8.23074 34.4246ZM22.845 42.7289L22.6113 43.1401L22.6123 43.1406L22.845 42.7289ZM25.1551 42.7289L24.9215 42.3178L24.9194 42.319L25.1551 42.7289ZM39.7693 34.4246L40.003 34.8358L40.0035 34.8354L39.7693 34.4246ZM39.7693 13.8786V13.4057C39.5548 13.4057 39.3672 13.5501 39.3122 13.7575C39.2573 13.9648 39.3488 14.1832 39.5351 14.2895L39.7693 13.8786ZM24.6691 41.9006L24.9013 42.3126C25.1219 42.1882 25.2054 41.9122 25.0908 41.6864L24.6691 41.9006ZM23.3345 41.9006L23.1008 42.3118L23.1023 42.3126L23.3345 41.9006ZM8.72023 33.5962L8.95387 33.1851L8.95242 33.1843L8.72023 33.5962ZM8.72023 14.7139L8.95394 15.125L8.95394 15.125L8.72023 14.7139ZM23.3345 6.4061L23.5682 6.81723L23.5708 6.81572L23.3345 6.4061ZM24.6656 6.4061L24.4293 6.81573L24.432 6.81726L24.6656 6.4061ZM39.2799 14.7104L39.0462 15.1216L39.0477 15.1224L39.2799 14.7104ZM39.8891 32.8233L39.5443 33.147C39.6601 33.2704 39.833 33.3225 39.9977 33.2836C40.1624 33.2447 40.2937 33.1209 40.3422 32.9587L39.8891 32.8233ZM39.0017 32.1232L39.2358 31.7123L39.2353 31.7121L39.0017 32.1232ZM25.9122 24.6854L25.6786 25.0965L25.6786 25.0965L25.9122 24.6854ZM22.0773 24.6854L22.3109 25.0965L22.3109 25.0965L22.0773 24.6854ZM9.90345 31.6033L9.66981 31.1922C9.55968 31.2548 9.47926 31.3589 9.44657 31.4813C9.41388 31.6036 9.43164 31.734 9.49588 31.8432L9.90345 31.6033ZM10.3929 32.4352L9.98537 32.675C10.1164 32.8977 10.4019 32.974 10.6266 32.8463L10.3929 32.4352ZM22.5668 25.5172L22.8004 25.9283L22.8012 25.9279L22.5668 25.5172ZM25.4263 25.5172L25.1918 25.9279L25.1926 25.9283L25.4263 25.5172ZM38.5157 32.955L38.282 33.3662L38.2839 33.3672L38.5157 32.955ZM39.2799 33.5893L39.5135 34.0005C39.6359 33.9309 39.721 33.8104 39.7455 33.6717C39.7701 33.533 39.7315 33.3906 39.6404 33.2832L39.2799 33.5893ZM24.6656 41.8937L24.432 41.4825C24.2124 41.6073 24.1296 41.8826 24.244 42.1078L24.6656 41.8937ZM40.0065 13.4675L25.3923 5.16311L24.925 5.98544L39.5392 14.2898L40.0065 13.4675ZM25.3928 5.16344C24.5363 4.67517 23.4708 4.67517 22.6143 5.16344L23.0827 5.98512C23.6489 5.66236 24.3582 5.66236 24.9244 5.98512L25.3928 5.16344ZM22.6149 5.16309L7.99714 13.4674L8.46433 14.2898L23.0821 5.98546L22.6149 5.16309ZM7.99653 13.4678C7.14038 13.9558 6.60278 14.8666 6.60278 15.8473H7.54859C7.54859 15.2128 7.8984 14.6124 8.46494 14.2895L7.99653 13.4678ZM6.60278 15.8473V32.456H7.54859V15.8473H6.60278ZM6.60278 32.456C6.60278 33.4404 7.14074 34.3476 7.99653 34.8354L8.46494 34.0138C7.89805 33.6906 7.54859 33.0935 7.54859 32.456H6.60278ZM7.9971 34.8358L22.6113 43.1401L23.0786 42.3178L8.46438 34.0134L7.9971 34.8358ZM22.6123 43.1406C23.0391 43.3819 23.5207 43.5069 24 43.5069V42.561C23.6835 42.561 23.3622 42.4781 23.0777 42.3172L22.6123 43.1406ZM24 43.5069C24.4767 43.5069 24.96 43.3866 25.3908 43.1389L24.9194 42.319C24.6388 42.4803 24.3192 42.561 24 42.561V43.5069ZM25.3887 43.1401L40.003 34.8358L39.5357 34.0134L24.9215 42.3178L25.3887 43.1401ZM40.0035 34.8354C40.8597 34.3474 41.3973 33.4366 41.3973 32.456H40.4515C40.4515 33.0905 40.1017 33.6908 39.5351 34.0138L40.0035 34.8354ZM41.3973 32.456V15.8473H40.4515V32.456H41.3973ZM41.3973 15.8473C41.3973 14.8628 40.8593 13.9556 40.0035 13.4678L39.5351 14.2895C40.102 14.6126 40.4515 15.2097 40.4515 15.8473H41.3973ZM39.7693 14.3515H39.7729V13.4057H39.7693V14.3515ZM24.4369 41.4886C24.1691 41.6396 23.8345 41.6396 23.5667 41.4886L23.1023 42.3126C23.6584 42.626 24.3452 42.626 24.9013 42.3126L24.4369 41.4886ZM23.5681 41.4894L8.95386 33.1851L8.48659 34.0074L23.1008 42.3118L23.5681 41.4894ZM8.95242 33.1843C8.6892 33.0359 8.52757 32.7567 8.52757 32.4594H7.58175C7.58175 33.0979 7.92722 33.6921 8.48803 34.0082L8.95242 33.1843ZM8.52757 32.4594V15.8507H7.58175V32.4594H8.52757ZM8.52757 15.8507C8.52757 15.5554 8.69116 15.2744 8.95394 15.125L8.48652 14.3028C7.93231 14.6178 7.58175 15.2103 7.58175 15.8507H8.52757ZM8.95394 15.125L23.5682 6.81722L23.1008 5.99498L8.48652 14.3028L8.95394 15.125ZM23.5708 6.81572C23.7004 6.74095 23.8508 6.70224 24 6.70224V5.75643C23.6915 5.75643 23.377 5.83556 23.0981 5.99648L23.5708 6.81572ZM24 6.70224C24.1493 6.70224 24.2997 6.74095 24.4293 6.81572L24.9019 5.99648C24.623 5.83556 24.3086 5.75643 24 5.75643V6.70224ZM24.432 6.81726L39.0462 15.1216L39.5135 14.2993L24.8992 5.99493L24.432 6.81726ZM39.0477 15.1224C39.3109 15.2708 39.4725 15.55 39.4725 15.8473H40.4183C40.4183 15.2088 40.0729 14.6145 39.512 14.2985L39.0477 15.1224ZM39.4725 15.8473V32.456H40.4183V15.8473H39.4725ZM39.4725 32.456C39.4725 32.5282 39.4601 32.6071 39.436 32.6879L40.3422 32.9587C40.3885 32.8039 40.4183 32.6333 40.4183 32.456H39.4725ZM40.2338 32.4997C39.9452 32.1922 39.6123 31.9269 39.2358 31.7123L38.7675 32.5341C39.0601 32.7008 39.3188 32.9068 39.5443 33.147L40.2338 32.4997ZM39.2353 31.7121L26.1459 24.2742L25.6786 25.0965L38.768 32.5344L39.2353 31.7121ZM26.1459 24.2742C24.8178 23.5195 23.1718 23.5195 21.8437 24.2742L22.3109 25.0965C23.3493 24.5065 24.6402 24.5065 25.6786 25.0965L26.1459 24.2742ZM21.8437 24.2742L9.66981 31.1922L10.1371 32.0145L22.3109 25.0965L21.8437 24.2742ZM9.49588 31.8432L9.98537 32.675L10.8005 32.1953L10.311 31.3635L9.49588 31.8432ZM10.6266 32.8463L22.8004 25.9283L22.3331 25.106L10.1593 32.024L10.6266 32.8463ZM22.8012 25.9279C23.5363 25.5083 24.4567 25.5083 25.1918 25.9279L25.6607 25.1065C24.635 24.521 23.358 24.521 22.3323 25.1065L22.8012 25.9279ZM25.1926 25.9283L38.2821 33.3662L38.7493 32.5439L25.6599 25.106L25.1926 25.9283ZM38.2839 33.3672C38.5277 33.5044 38.7384 33.6822 38.9194 33.8954L39.6404 33.2832C39.3917 32.9904 39.0953 32.7385 38.7475 32.5429L38.2839 33.3672ZM39.0462 33.1781L24.432 41.4825L24.8992 42.3048L39.5135 34.0005L39.0462 33.1781ZM24.244 42.1078L24.2475 42.1148L25.0908 41.6864L25.0872 41.6795L24.244 42.1078Z" fill="#4BC5DB"/>
<path d="M70.968 7.82815V24.6761H66.864V14.5721L63.096 24.6761H59.784L55.992 14.5481V24.6761H51.888V7.82815H56.736L61.464 19.4921L66.144 7.82815H70.968Z" fill="white"/>
<path d="M84.8873 7.82815V11.1161H78.0233V14.6681H83.1593V17.8601H78.0233V24.6761H73.9193V7.82815H84.8873Z" fill="white"/>
<path d="M98.2262 24.8442C96.9942 24.8442 95.8902 24.6442 94.9142 24.2442C93.9382 23.8442 93.1542 23.2521 92.5622 22.4681C91.9862 21.6841 91.6822 20.7401 91.6502 19.6361H96.0182C96.0822 20.2601 96.2982 20.7401 96.6662 21.0761C97.0342 21.3961 97.5142 21.5562 98.1062 21.5562C98.7142 21.5562 99.1942 21.4201 99.5462 21.1481C99.8982 20.8601 100.074 20.4681 100.074 19.9721C100.074 19.5561 99.9302 19.2121 99.6422 18.9401C99.3702 18.6681 99.0262 18.4441 98.6102 18.2681C98.2102 18.0921 97.6342 17.8921 96.8822 17.6681C95.7942 17.3321 94.9062 16.9961 94.2182 16.6601C93.5302 16.3241 92.9382 15.8281 92.4422 15.1721C91.9462 14.5161 91.6982 13.6601 91.6982 12.6041C91.6982 11.0361 92.2662 9.81215 93.4022 8.93215C94.5382 8.03615 96.0182 7.58815 97.8422 7.58815C99.6982 7.58815 101.194 8.03615 102.33 8.93215C103.466 9.81215 104.074 11.0441 104.154 12.6281H99.7142C99.6822 12.0841 99.4822 11.6601 99.1142 11.3561C98.7462 11.0361 98.2742 10.8761 97.6982 10.8761C97.2022 10.8761 96.8022 11.0121 96.4982 11.2841C96.1942 11.5401 96.0422 11.9161 96.0422 12.4121C96.0422 12.9561 96.2982 13.3801 96.8102 13.6841C97.3222 13.9881 98.1222 14.3161 99.2102 14.6681C100.298 15.0361 101.178 15.3881 101.85 15.7241C102.538 16.0601 103.13 16.5481 103.626 17.1881C104.122 17.8281 104.37 18.6521 104.37 19.6601C104.37 20.6201 104.122 21.4921 103.626 22.2761C103.146 23.0601 102.442 23.6841 101.514 24.1481C100.586 24.6121 99.4902 24.8442 98.2262 24.8442Z" fill="white"/>
<path d="M112.992 24.8682C111.68 24.8682 110.496 24.5882 109.44 24.0282C108.4 23.4682 107.576 22.6681 106.968 21.6281C106.376 20.5881 106.08 19.3721 106.08 17.9801C106.08 16.6041 106.384 15.3961 106.992 14.3561C107.6 13.3001 108.432 12.4921 109.488 11.9321C110.544 11.3721 111.728 11.0921 113.04 11.0921C114.352 11.0921 115.536 11.3721 116.592 11.9321C117.648 12.4921 118.48 13.3001 119.088 14.3561C119.696 15.3961 120 16.6041 120 17.9801C120 19.3561 119.688 20.5721 119.064 21.6281C118.456 22.6681 117.616 23.4682 116.544 24.0282C115.488 24.5882 114.304 24.8682 112.992 24.8682ZM112.992 21.3161C113.776 21.3161 114.44 21.0281 114.984 20.4521C115.544 19.8761 115.824 19.0521 115.824 17.9801C115.824 16.9081 115.552 16.0841 115.008 15.5081C114.48 14.9321 113.824 14.6441 113.04 14.6441C112.24 14.6441 111.576 14.9321 111.048 15.5081C110.52 16.0681 110.256 16.8921 110.256 17.9801C110.256 19.0521 110.512 19.8761 111.024 20.4521C111.552 21.0281 112.208 21.3161 112.992 21.3161Z" fill="white"/>
<path d="M126.281 6.91615V24.6761H122.177V6.91615H126.281Z" fill="white"/>
<path d="M142.479 11.2841V24.6761H138.375V22.8521C137.959 23.4442 137.391 23.9242 136.671 24.2922C135.967 24.6442 135.183 24.8202 134.319 24.8202C133.295 24.8202 132.391 24.5961 131.607 24.1481C130.823 23.6841 130.215 23.0201 129.783 22.1561C129.351 21.2921 129.135 20.2761 129.135 19.1081V11.2841H133.215V18.5561C133.215 19.4521 133.447 20.1481 133.911 20.6441C134.375 21.1401 134.999 21.3881 135.783 21.3881C136.583 21.3881 137.215 21.1401 137.679 20.6441C138.143 20.1481 138.375 19.4521 138.375 18.5561V11.2841H142.479Z" fill="white"/>
<path d="M152.891 21.1961V24.6761H150.803C149.315 24.6761 148.155 24.3161 147.323 23.5961C146.491 22.8601 146.075 21.6681 146.075 20.0201V14.6922H144.443V11.2841H146.075V8.02015H150.179V11.2841H152.867V14.6922H150.179V20.0681C150.179 20.4681 150.275 20.7561 150.467 20.9321C150.659 21.1081 150.979 21.1961 151.427 21.1961H152.891Z" fill="white"/>
<path d="M157.241 9.89215C156.521 9.89215 155.929 9.68415 155.465 9.26815C155.017 8.83615 154.793 8.30815 154.793 7.68415C154.793 7.04415 155.017 6.51615 155.465 6.10015C155.929 5.66815 156.521 5.45215 157.241 5.45215C157.945 5.45215 158.521 5.66815 158.969 6.10015C159.433 6.51615 159.665 7.04415 159.665 7.68415C159.665 8.30815 159.433 8.83615 158.969 9.26815C158.521 9.68415 157.945 9.89215 157.241 9.89215ZM159.281 11.2841V24.6761H155.177V11.2841H159.281Z" fill="white"/>
<path d="M168.351 24.8682C167.039 24.8682 165.855 24.5882 164.799 24.0282C163.759 23.4682 162.935 22.6681 162.327 21.6281C161.735 20.5881 161.439 19.3721 161.439 17.9801C161.439 16.6041 161.743 15.3961 162.351 14.3561C162.959 13.3001 163.791 12.4921 164.847 11.9321C165.903 11.3721 167.087 11.0921 168.399 11.0921C169.711 11.0921 170.895 11.3721 171.951 11.9321C173.007 12.4921 173.839 13.3001 174.447 14.3561C175.055 15.3961 175.359 16.6041 175.359 17.9801C175.359 19.3561 175.047 20.5721 174.423 21.6281C173.815 22.6681 172.975 23.4682 171.903 24.0282C170.847 24.5882 169.663 24.8682 168.351 24.8682ZM168.351 21.3161C169.135 21.3161 169.799 21.0281 170.343 20.4521C170.903 19.8761 171.183 19.0521 171.183 17.9801C171.183 16.9081 170.911 16.0841 170.367 15.5081C169.839 14.9321 169.183 14.6441 168.399 14.6441C167.599 14.6441 166.935 14.9321 166.407 15.5081C165.879 16.0681 165.615 16.8921 165.615 17.9801C165.615 19.0521 165.871 19.8761 166.383 20.4521C166.911 21.0281 167.567 21.3161 168.351 21.3161Z" fill="white"/>
<path d="M185.696 11.1401C187.264 11.1401 188.512 11.6521 189.44 12.6761C190.384 13.6841 190.856 15.0761 190.856 16.8521V24.6761H186.776V17.4042C186.776 16.5081 186.544 15.8121 186.08 15.3161C185.616 14.8201 184.992 14.5721 184.208 14.5721C183.424 14.5721 182.8 14.8201 182.336 15.3161C181.872 15.8121 181.64 16.5081 181.64 17.4042V24.6761H177.536V11.2841H181.64V13.0601C182.056 12.4681 182.616 12.0041 183.32 11.6681C184.024 11.3161 184.816 11.1401 185.696 11.1401Z" fill="white"/>
<path d="M199.156 24.8682C197.988 24.8682 196.948 24.6682 196.036 24.2682C195.124 23.8682 194.404 23.3242 193.876 22.6362C193.348 21.9322 193.052 21.1481 192.988 20.2841H197.044C197.092 20.7481 197.308 21.1241 197.692 21.4121C198.076 21.7001 198.548 21.8442 199.108 21.8442C199.62 21.8442 200.012 21.7482 200.284 21.5562C200.572 21.3482 200.716 21.0841 200.716 20.7641C200.716 20.3801 200.516 20.1001 200.116 19.9241C199.716 19.7321 199.068 19.5241 198.172 19.3001C197.212 19.0761 196.412 18.8441 195.772 18.6041C195.132 18.3481 194.58 17.9561 194.116 17.4281C193.652 16.8841 193.42 16.1561 193.42 15.2442C193.42 14.4762 193.628 13.7801 194.044 13.1561C194.476 12.5161 195.1 12.0121 195.916 11.6441C196.748 11.2761 197.732 11.0921 198.868 11.0921C200.548 11.0921 201.868 11.5081 202.828 12.3401C203.804 13.1721 204.364 14.2761 204.508 15.6521H200.716C200.652 15.1881 200.444 14.8201 200.092 14.5481C199.756 14.2761 199.308 14.1402 198.748 14.1402C198.268 14.1402 197.9 14.2361 197.644 14.4281C197.388 14.6041 197.26 14.8521 197.26 15.1721C197.26 15.5561 197.46 15.8442 197.86 16.0361C198.276 16.2281 198.916 16.4201 199.78 16.6121C200.772 16.8681 201.58 17.1241 202.204 17.3801C202.828 17.6202 203.372 18.0201 203.836 18.5801C204.316 19.1241 204.564 19.8601 204.58 20.7881C204.58 21.5721 204.356 22.2762 203.908 22.9002C203.476 23.5082 202.844 23.9881 202.012 24.3401C201.196 24.6921 200.244 24.8682 199.156 24.8682Z" fill="white"/>
<path d="M54.272 35.1161V35.8601H51.912V37.5001H53.752V38.2441H51.912V40.6762H51V35.1161H54.272Z" fill="white"/>
<path d="M56.0292 36.9081C56.1625 36.6841 56.3385 36.5108 56.5572 36.3881C56.7812 36.2601 57.0452 36.1961 57.3492 36.1961V37.1402H57.1172C56.7599 37.1402 56.4879 37.2308 56.3012 37.4121C56.1199 37.5935 56.0292 37.9081 56.0292 38.3561V40.6762H55.1172V36.2682H56.0292V36.9081Z" fill="white"/>
<path d="M57.8835 38.4521C57.8835 38.0095 57.9742 37.6175 58.1555 37.2761C58.3422 36.9348 58.5928 36.6708 58.9075 36.4841C59.2275 36.2922 59.5795 36.1961 59.9635 36.1961C60.3102 36.1961 60.6115 36.2655 60.8675 36.4042C61.1288 36.5375 61.3368 36.7055 61.4915 36.9081V36.2682H62.4115V40.6762H61.4915V40.0201C61.3368 40.2281 61.1262 40.4015 60.8595 40.5401C60.5928 40.6788 60.2888 40.7481 59.9475 40.7481C59.5688 40.7481 59.2222 40.6522 58.9075 40.4602C58.5928 40.2628 58.3422 39.9908 58.1555 39.6441C57.9742 39.2921 57.8835 38.8948 57.8835 38.4521ZM61.4915 38.4682C61.4915 38.1642 61.4275 37.9002 61.2995 37.6762C61.1768 37.4522 61.0142 37.2815 60.8115 37.1642C60.6088 37.0468 60.3902 36.9881 60.1555 36.9881C59.9208 36.9881 59.7022 37.0468 59.4995 37.1642C59.2968 37.2762 59.1315 37.4441 59.0035 37.6681C58.8808 37.8868 58.8195 38.1481 58.8195 38.4521C58.8195 38.7561 58.8808 39.0228 59.0035 39.2522C59.1315 39.4815 59.2968 39.6575 59.4995 39.7802C59.7075 39.8975 59.9262 39.9562 60.1555 39.9562C60.3902 39.9562 60.6088 39.8975 60.8115 39.7802C61.0142 39.6628 61.1768 39.4922 61.2995 39.2682C61.4275 39.0388 61.4915 38.7722 61.4915 38.4682Z" fill="white"/>
<path d="M68.9454 36.1961C69.292 36.1961 69.6014 36.2681 69.8734 36.4121C70.1507 36.5561 70.3667 36.7695 70.5214 37.0522C70.6814 37.3348 70.7614 37.6761 70.7614 38.0761V40.6762H69.8574V38.2122C69.8574 37.8175 69.7587 37.5161 69.5614 37.3081C69.364 37.0948 69.0947 36.9881 68.7534 36.9881C68.412 36.9881 68.14 37.0948 67.9374 37.3081C67.74 37.5161 67.6414 37.8175 67.6414 38.2122V40.6762H66.7374V38.2122C66.7374 37.8175 66.6387 37.5161 66.4414 37.3081C66.244 37.0948 65.9747 36.9881 65.6334 36.9881C65.292 36.9881 65.02 37.0948 64.8174 37.3081C64.62 37.5161 64.5214 37.8175 64.5214 38.2122V40.6762H63.6094V36.2682H64.5214V36.7722C64.6707 36.5908 64.86 36.4495 65.0894 36.3482C65.3187 36.2468 65.564 36.1961 65.8254 36.1961C66.1774 36.1961 66.492 36.2708 66.7694 36.4202C67.0467 36.5695 67.26 36.7855 67.4094 37.0681C67.5427 36.8015 67.7507 36.5908 68.0334 36.4361C68.316 36.2761 68.62 36.1961 68.9454 36.1961Z" fill="white"/>
<path d="M75.9619 38.3642C75.9619 38.5295 75.9512 38.6788 75.9299 38.8121H72.5619C72.5885 39.1641 72.7192 39.4468 72.9539 39.6601C73.1885 39.8735 73.4765 39.9801 73.8179 39.9801C74.3085 39.9801 74.6552 39.7748 74.8579 39.3642H75.8419C75.7085 39.7695 75.4659 40.1028 75.1139 40.3642C74.7672 40.6202 74.3352 40.7481 73.8179 40.7481C73.3965 40.7481 73.0179 40.6548 72.6819 40.4682C72.3512 40.2762 72.0899 40.0095 71.8979 39.6681C71.7112 39.3215 71.6179 38.9215 71.6179 38.4682C71.6179 38.0148 71.7085 37.6175 71.8899 37.2761C72.0765 36.9295 72.3352 36.6628 72.6659 36.4762C73.0019 36.2895 73.3859 36.1961 73.8179 36.1961C74.2339 36.1961 74.6045 36.2868 74.9299 36.4681C75.2552 36.6495 75.5085 36.9055 75.6899 37.2361C75.8712 37.5615 75.9619 37.9375 75.9619 38.3642ZM75.0099 38.0761C75.0045 37.7401 74.8845 37.4708 74.6499 37.2682C74.4152 37.0655 74.1245 36.9641 73.7779 36.9641C73.4632 36.9641 73.1939 37.0655 72.9699 37.2682C72.7459 37.4655 72.6125 37.7348 72.5699 38.0761H75.0099Z" fill="white"/>
<path d="M80.2434 37.3961V38.1642H76.9554V37.3961H80.2434Z" fill="white"/>
<path d="M83.3551 35.1161C83.9471 35.1161 84.4644 35.2308 84.9071 35.4601C85.3551 35.6841 85.6991 36.0095 85.9391 36.4361C86.1844 36.8575 86.3071 37.3508 86.3071 37.9161C86.3071 38.4815 86.1844 38.9721 85.9391 39.3881C85.6991 39.8041 85.3551 40.1241 84.9071 40.3481C84.4644 40.5668 83.9471 40.6762 83.3551 40.6762H81.5391V35.1161H83.3551ZM83.3551 39.9321C84.0057 39.9321 84.5044 39.7561 84.8511 39.4041C85.1977 39.0521 85.3711 38.5561 85.3711 37.9161C85.3711 37.2708 85.1977 36.7668 84.8511 36.4042C84.5044 36.0415 84.0057 35.8601 83.3551 35.8601H82.4511V39.9321H83.3551Z" fill="white"/>
<path d="M91.2509 38.3642C91.2509 38.5295 91.2403 38.6788 91.2189 38.8121H87.8509C87.8776 39.1641 88.0083 39.4468 88.2429 39.6601C88.4776 39.8735 88.7656 39.9801 89.1069 39.9801C89.5976 39.9801 89.9443 39.7748 90.1469 39.3642H91.1309C90.9976 39.7695 90.7549 40.1028 90.4029 40.3642C90.0563 40.6202 89.6243 40.7481 89.1069 40.7481C88.6856 40.7481 88.3069 40.6548 87.9709 40.4682C87.6403 40.2762 87.3789 40.0095 87.1869 39.6681C87.0003 39.3215 86.9069 38.9215 86.9069 38.4682C86.9069 38.0148 86.9976 37.6175 87.1789 37.2761C87.3656 36.9295 87.6243 36.6628 87.9549 36.4762C88.2909 36.2895 88.6749 36.1961 89.1069 36.1961C89.5229 36.1961 89.8936 36.2868 90.2189 36.4681C90.5443 36.6495 90.7976 36.9055 90.9789 37.2361C91.1603 37.5615 91.2509 37.9375 91.2509 38.3642ZM90.2989 38.0761C90.2936 37.7401 90.1736 37.4708 89.9389 37.2682C89.7043 37.0655 89.4136 36.9641 89.0669 36.9641C88.7523 36.9641 88.4829 37.0655 88.2589 37.2682C88.0349 37.4655 87.9016 37.7348 87.8589 38.0761H90.2989Z" fill="white"/>
<path d="M93.7484 40.7481C93.4018 40.7481 93.0898 40.6868 92.8124 40.5641C92.5404 40.4361 92.3244 40.2655 92.1644 40.0522C92.0044 39.8335 91.9191 39.5908 91.9084 39.3242H92.8524C92.8684 39.5108 92.9564 39.6682 93.1164 39.7962C93.2818 39.9188 93.4871 39.9801 93.7324 39.9801C93.9884 39.9801 94.1858 39.9322 94.3244 39.8362C94.4684 39.7348 94.5404 39.6068 94.5404 39.4521C94.5404 39.2868 94.4604 39.1641 94.3004 39.0841C94.1458 39.0041 93.8978 38.9161 93.5564 38.8201C93.2258 38.7295 92.9564 38.6415 92.7484 38.5561C92.5404 38.4708 92.3591 38.3402 92.2044 38.1642C92.0551 37.9882 91.9804 37.7562 91.9804 37.4682C91.9804 37.2335 92.0498 37.0201 92.1884 36.8281C92.3271 36.6308 92.5244 36.4761 92.7804 36.3641C93.0418 36.2521 93.3404 36.1961 93.6764 36.1961C94.1778 36.1961 94.5804 36.3242 94.8844 36.5802C95.1938 36.8308 95.3591 37.1748 95.3804 37.6121H94.4684C94.4524 37.4148 94.3724 37.2575 94.2284 37.1402C94.0844 37.0228 93.8898 36.9641 93.6444 36.9641C93.4044 36.9641 93.2204 37.0095 93.0924 37.1001C92.9644 37.1908 92.9004 37.3108 92.9004 37.4602C92.9004 37.5775 92.9431 37.6761 93.0284 37.7561C93.1138 37.8361 93.2178 37.9002 93.3404 37.9482C93.4631 37.9908 93.6444 38.0468 93.8844 38.1161C94.2044 38.2015 94.4658 38.2895 94.6684 38.3801C94.8764 38.4655 95.0551 38.5935 95.2044 38.7641C95.3538 38.9348 95.4311 39.1615 95.4364 39.4441C95.4364 39.6948 95.3671 39.9188 95.2284 40.1161C95.0898 40.3135 94.8924 40.4682 94.6364 40.5802C94.3858 40.6922 94.0898 40.7481 93.7484 40.7481Z" fill="white"/>
<path d="M96.8859 35.6842C96.7205 35.6842 96.5819 35.6281 96.4699 35.5161C96.3579 35.4041 96.3019 35.2655 96.3019 35.1001C96.3019 34.9348 96.3579 34.7962 96.4699 34.6842C96.5819 34.5722 96.7205 34.5161 96.8859 34.5161C97.0459 34.5161 97.1819 34.5722 97.2939 34.6842C97.4059 34.7962 97.4619 34.9348 97.4619 35.1001C97.4619 35.2655 97.4059 35.4041 97.2939 35.5161C97.1819 35.6281 97.0459 35.6842 96.8859 35.6842ZM97.3339 36.2682V40.6762H96.4219V36.2682H97.3339Z" fill="white"/>
<path d="M100.307 36.1961C100.649 36.1961 100.95 36.2655 101.211 36.4042C101.478 36.5375 101.686 36.7055 101.835 36.9081V36.2682H102.755V40.7481C102.755 41.1535 102.67 41.5135 102.499 41.8282C102.329 42.1482 102.081 42.3988 101.755 42.5802C101.435 42.7615 101.051 42.8521 100.603 42.8521C100.006 42.8521 99.5099 42.7108 99.1152 42.4282C98.7206 42.1508 98.4966 41.7721 98.4432 41.2921H99.3473C99.4166 41.5215 99.5633 41.7055 99.7873 41.8442C100.017 41.9882 100.289 42.0602 100.603 42.0602C100.971 42.0602 101.267 41.9482 101.491 41.7242C101.721 41.5002 101.835 41.1748 101.835 40.7481V40.0121C101.681 40.2201 101.47 40.3961 101.203 40.5401C100.942 40.6788 100.643 40.7481 100.307 40.7481C99.9233 40.7481 99.5713 40.6522 99.2513 40.4602C98.9366 40.2628 98.6859 39.9908 98.4992 39.6441C98.3179 39.2921 98.2272 38.8948 98.2272 38.4521C98.2272 38.0095 98.3179 37.6175 98.4992 37.2761C98.6859 36.9348 98.9366 36.6708 99.2513 36.4841C99.5713 36.2922 99.9233 36.1961 100.307 36.1961ZM101.835 38.4682C101.835 38.1642 101.771 37.9002 101.643 37.6762C101.521 37.4522 101.358 37.2815 101.155 37.1642C100.953 37.0468 100.734 36.9881 100.499 36.9881C100.265 36.9881 100.046 37.0468 99.8433 37.1642C99.6406 37.2762 99.4753 37.4441 99.3473 37.6681C99.2246 37.8868 99.1632 38.1481 99.1632 38.4521C99.1632 38.7561 99.2246 39.0228 99.3473 39.2522C99.4753 39.4815 99.6406 39.6575 99.8433 39.7802C100.051 39.8975 100.27 39.9562 100.499 39.9562C100.734 39.9562 100.953 39.8975 101.155 39.7802C101.358 39.6628 101.521 39.4922 101.643 39.2682C101.771 39.0388 101.835 38.7722 101.835 38.4682Z" fill="white"/>
<path d="M106.177 36.1961C106.524 36.1961 106.833 36.2681 107.105 36.4121C107.382 36.5561 107.598 36.7695 107.753 37.0522C107.908 37.3348 107.985 37.6761 107.985 38.0761V40.6762H107.081V38.2122C107.081 37.8175 106.982 37.5161 106.785 37.3081C106.588 37.0948 106.318 36.9881 105.977 36.9881C105.636 36.9881 105.364 37.0948 105.161 37.3081C104.964 37.5161 104.865 37.8175 104.865 38.2122V40.6762H103.953V36.2682H104.865V36.7722C105.014 36.5908 105.204 36.4495 105.433 36.3482C105.668 36.2468 105.916 36.1961 106.177 36.1961Z" fill="white"/>
<path d="M112.532 37.3961V38.1642H109.244V37.3961H112.532Z" fill="white"/>
<path d="M113.524 37.8842C113.524 37.3402 113.649 36.8522 113.9 36.4202C114.156 35.9882 114.5 35.6521 114.932 35.4121C115.369 35.1668 115.847 35.0441 116.364 35.0441C116.956 35.0441 117.481 35.1908 117.94 35.4841C118.404 35.7722 118.74 36.1828 118.948 36.7162H117.852C117.708 36.4228 117.508 36.2042 117.252 36.0602C116.996 35.9162 116.7 35.8442 116.364 35.8442C115.996 35.8442 115.668 35.9268 115.38 36.0921C115.092 36.2575 114.865 36.4948 114.7 36.8041C114.54 37.1135 114.46 37.4735 114.46 37.8842C114.46 38.2948 114.54 38.6548 114.7 38.9641C114.865 39.2735 115.092 39.5135 115.38 39.6842C115.668 39.8495 115.996 39.9321 116.364 39.9321C116.7 39.9321 116.996 39.8601 117.252 39.7161C117.508 39.5721 117.708 39.3535 117.852 39.0602H118.948C118.74 39.5935 118.404 40.0041 117.94 40.2921C117.481 40.5801 116.956 40.7242 116.364 40.7242C115.841 40.7242 115.364 40.6042 114.932 40.3642C114.5 40.1188 114.156 39.7801 113.9 39.3481C113.649 38.9161 113.524 38.4282 113.524 37.8842Z" fill="white"/>
<path d="M121.928 40.7481C121.512 40.7481 121.136 40.6548 120.8 40.4682C120.464 40.2762 120.2 40.0095 120.008 39.6681C119.816 39.3215 119.72 38.9215 119.72 38.4682C119.72 38.0202 119.818 37.6228 120.016 37.2761C120.213 36.9295 120.482 36.6628 120.824 36.4762C121.165 36.2895 121.546 36.1961 121.968 36.1961C122.389 36.1961 122.77 36.2895 123.112 36.4762C123.453 36.6628 123.722 36.9295 123.92 37.2761C124.117 37.6228 124.216 38.0202 124.216 38.4682C124.216 38.9162 124.114 39.3135 123.912 39.6601C123.709 40.0068 123.432 40.2762 123.08 40.4682C122.733 40.6548 122.349 40.7481 121.928 40.7481ZM121.928 39.9562C122.162 39.9562 122.381 39.9002 122.584 39.7882C122.792 39.6762 122.96 39.5081 123.088 39.2841C123.216 39.0601 123.28 38.7882 123.28 38.4682C123.28 38.1482 123.218 37.8788 123.096 37.6601C122.973 37.4361 122.81 37.2681 122.608 37.1561C122.405 37.0441 122.186 36.9881 121.952 36.9881C121.717 36.9881 121.498 37.0441 121.296 37.1561C121.098 37.2681 120.941 37.4361 120.824 37.6601C120.706 37.8788 120.648 38.1482 120.648 38.4682C120.648 38.9428 120.768 39.3108 121.008 39.5722C121.253 39.8282 121.56 39.9562 121.928 39.9562Z" fill="white"/>
<path d="M127.341 36.1961C127.688 36.1961 127.997 36.2681 128.269 36.4121C128.547 36.5561 128.763 36.7695 128.917 37.0522C129.072 37.3348 129.149 37.6761 129.149 38.0761V40.6762H128.245V38.2122C128.245 37.8175 128.147 37.5161 127.949 37.3081C127.752 37.0948 127.483 36.9881 127.141 36.9881C126.8 36.9881 126.528 37.0948 126.325 37.3081C126.128 37.5161 126.029 37.8175 126.029 38.2122V40.6762H125.117V36.2682H126.029V36.7722C126.179 36.5908 126.368 36.4495 126.597 36.3482C126.832 36.2468 127.08 36.1961 127.341 36.1961Z" fill="white"/>
<path d="M132.16 37.0121H131.344V40.6762H130.424V37.0121H129.905V36.2682H130.424V35.9562C130.424 35.4495 130.558 35.0815 130.825 34.8521C131.097 34.6175 131.52 34.5001 132.096 34.5001V35.2601C131.819 35.2601 131.624 35.3135 131.512 35.4202C131.4 35.5215 131.344 35.7002 131.344 35.9562V36.2682H132.16V37.0121Z" fill="white"/>
<path d="M133.433 35.6842C133.267 35.6842 133.129 35.6281 133.017 35.5161C132.905 35.4041 132.849 35.2655 132.849 35.1001C132.849 34.9348 132.905 34.7962 133.017 34.6842C133.129 34.5722 133.267 34.5161 133.433 34.5161C133.593 34.5161 133.729 34.5722 133.841 34.6842C133.953 34.7962 134.009 34.9348 134.009 35.1001C134.009 35.2655 133.953 35.4041 133.841 35.5161C133.729 35.6281 133.593 35.6842 133.433 35.6842ZM133.881 36.2682V40.6762H132.969V36.2682H133.881Z" fill="white"/>
<path d="M134.774 38.4521C134.774 38.0095 134.865 37.6175 135.046 37.2761C135.233 36.9348 135.483 36.6708 135.798 36.4841C136.118 36.2922 136.473 36.1961 136.862 36.1961C137.15 36.1961 137.433 36.2601 137.71 36.3881C137.993 36.5108 138.217 36.6761 138.382 36.8841V34.7561H139.302V40.6762H138.382V40.0121C138.233 40.2255 138.025 40.4015 137.758 40.5401C137.497 40.6788 137.195 40.7481 136.854 40.7481C136.47 40.7481 136.118 40.6522 135.798 40.4602C135.483 40.2628 135.233 39.9908 135.046 39.6441C134.865 39.2921 134.774 38.8948 134.774 38.4521ZM138.382 38.4682C138.382 38.1642 138.318 37.9002 138.19 37.6762C138.067 37.4522 137.905 37.2815 137.702 37.1642C137.499 37.0468 137.281 36.9881 137.046 36.9881C136.811 36.9881 136.593 37.0468 136.39 37.1642C136.187 37.2762 136.022 37.4441 135.894 37.6681C135.771 37.8868 135.71 38.1481 135.71 38.4521C135.71 38.7561 135.771 39.0228 135.894 39.2522C136.022 39.4815 136.187 39.6575 136.39 39.7802C136.598 39.8975 136.817 39.9562 137.046 39.9562C137.281 39.9562 137.499 39.8975 137.702 39.7802C137.905 39.6628 138.067 39.4922 138.19 39.2682C138.318 39.0388 138.382 38.7722 138.382 38.4682Z" fill="white"/>
<path d="M144.54 38.3642C144.54 38.5295 144.529 38.6788 144.508 38.8121H141.14C141.167 39.1641 141.297 39.4468 141.532 39.6601C141.767 39.8735 142.055 39.9801 142.396 39.9801C142.887 39.9801 143.233 39.7748 143.436 39.3642H144.42C144.287 39.7695 144.044 40.1028 143.692 40.3642C143.345 40.6202 142.913 40.7481 142.396 40.7481C141.975 40.7481 141.596 40.6548 141.26 40.4682C140.929 40.2762 140.668 40.0095 140.476 39.6681C140.289 39.3215 140.196 38.9215 140.196 38.4682C140.196 38.0148 140.287 37.6175 140.468 37.2761C140.655 36.9295 140.913 36.6628 141.244 36.4762C141.58 36.2895 141.964 36.1961 142.396 36.1961C142.812 36.1961 143.183 36.2868 143.508 36.4681C143.833 36.6495 144.087 36.9055 144.268 37.2361C144.449 37.5615 144.54 37.9375 144.54 38.3642ZM143.588 38.0761C143.583 37.7401 143.463 37.4708 143.228 37.2682C142.993 37.0655 142.703 36.9641 142.356 36.9641C142.041 36.9641 141.772 37.0655 141.548 37.2682C141.324 37.4655 141.191 37.7348 141.148 38.0761H143.588Z" fill="white"/>
<path d="M147.661 36.1961C148.008 36.1961 148.318 36.2681 148.59 36.4121C148.867 36.5561 149.083 36.7695 149.238 37.0522C149.392 37.3348 149.469 37.6761 149.469 38.0761V40.6762H148.565V38.2122C148.565 37.8175 148.467 37.5161 148.27 37.3081C148.072 37.0948 147.803 36.9881 147.462 36.9881C147.12 36.9881 146.848 37.0948 146.646 37.3081C146.448 37.5161 146.35 37.8175 146.35 38.2122V40.6762H145.438V36.2682H146.35V36.7722C146.499 36.5908 146.688 36.4495 146.918 36.3482C147.152 36.2468 147.4 36.1961 147.661 36.1961Z" fill="white"/>
<path d="M150.329 38.4682C150.329 38.0148 150.419 37.6175 150.601 37.2761C150.787 36.9295 151.043 36.6628 151.369 36.4762C151.694 36.2895 152.067 36.1961 152.489 36.1961C153.022 36.1961 153.462 36.3242 153.809 36.5802C154.161 36.8308 154.398 37.1908 154.521 37.6601H153.537C153.457 37.4415 153.329 37.2708 153.153 37.1481C152.977 37.0255 152.755 36.9641 152.489 36.9641C152.115 36.9641 151.817 37.0975 151.593 37.3641C151.374 37.6255 151.265 37.9935 151.265 38.4682C151.265 38.9428 151.374 39.3135 151.593 39.5802C151.817 39.8468 152.115 39.9801 152.489 39.9801C153.017 39.9801 153.366 39.7481 153.537 39.2841H154.521C154.393 39.7321 154.153 40.0895 153.801 40.3562C153.449 40.6175 153.011 40.7481 152.489 40.7481C152.067 40.7481 151.694 40.6548 151.369 40.4682C151.043 40.2762 150.787 40.0095 150.601 39.6681C150.419 39.3215 150.329 38.9215 150.329 38.4682Z" fill="white"/>
<path d="M159.47 38.3642C159.47 38.5295 159.459 38.6788 159.438 38.8121H156.07C156.096 39.1641 156.227 39.4468 156.462 39.6601C156.696 39.8735 156.984 39.9801 157.326 39.9801C157.816 39.9801 158.163 39.7748 158.366 39.3642H159.35C159.216 39.7695 158.974 40.1028 158.622 40.3642C158.275 40.6202 157.843 40.7481 157.326 40.7481C156.904 40.7481 156.526 40.6548 156.19 40.4682C155.859 40.2762 155.598 40.0095 155.406 39.6681C155.219 39.3215 155.126 38.9215 155.126 38.4682C155.126 38.0148 155.216 37.6175 155.398 37.2761C155.584 36.9295 155.843 36.6628 156.174 36.4762C156.51 36.2895 156.894 36.1961 157.326 36.1961C157.742 36.1961 158.112 36.2868 158.438 36.4681C158.763 36.6495 159.016 36.9055 159.198 37.2361C159.379 37.5615 159.47 37.9375 159.47 38.3642ZM158.518 38.0761C158.512 37.7401 158.392 37.4708 158.158 37.2682C157.923 37.0655 157.632 36.9641 157.286 36.9641C156.971 36.9641 156.702 37.0655 156.478 37.2682C156.254 37.4655 156.12 37.7348 156.078 38.0761H158.518Z" fill="white"/>
<path d="M160.735 40.7322C160.57 40.7322 160.431 40.6761 160.319 40.5641C160.207 40.4521 160.151 40.3135 160.151 40.1482C160.151 39.9828 160.207 39.8442 160.319 39.7322C160.431 39.6202 160.57 39.5641 160.735 39.5641C160.895 39.5641 161.031 39.6202 161.143 39.7322C161.255 39.8442 161.311 39.9828 161.311 40.1482C161.311 40.3135 161.255 40.4521 161.143 40.5641C161.031 40.6761 160.895 40.7322 160.735 40.7322Z" fill="white"/>
</svg>
