<svg width="48" height="49" viewBox="0 0 48 49" fill="none" xmlns="http://www.w3.org/2000/svg">
<path d="M39.7729 13.8786L25.1586 5.57428C24.4473 5.16876 23.5599 5.16876 22.8485 5.57428L8.23074 13.8786C7.51939 14.2841 7.07568 15.0397 7.07568 15.8473V32.456C7.07568 33.267 7.51939 34.0191 8.23074 34.4246L22.845 42.7289C23.2007 42.93 23.6021 43.0339 24 43.0339C24.398 43.0339 24.7994 42.9334 25.1551 42.7289L39.7693 34.4246C40.4807 34.0191 40.9244 33.2635 40.9244 32.456V15.8473C40.9244 15.0362 40.4807 14.2841 39.7693 13.8786H39.7729ZM24.6691 41.9006C24.2571 42.1328 23.7465 42.1328 23.3345 41.9006L8.72023 33.5962C8.30821 33.364 8.05466 32.9273 8.05466 32.4594V15.8507C8.05466 15.3828 8.31173 14.9461 8.72023 14.7139L23.3345 6.4061C23.5387 6.28826 23.7711 6.22933 24 6.22933C24.2289 6.22933 24.4614 6.28826 24.6656 6.4061L39.2799 14.7104C39.6919 14.9427 39.9454 15.3794 39.9454 15.8473V32.456C39.9454 32.5807 39.9243 32.7055 39.8891 32.8233C39.632 32.5495 39.3362 32.3139 39.0017 32.1232L25.9122 24.6854C24.729 24.013 23.2605 24.013 22.0773 24.6854L9.90345 31.6033L10.3929 32.4352L22.5668 25.5172C23.4472 25.0146 24.5459 25.0146 25.4263 25.5172L38.5157 32.955C38.8115 33.1214 39.065 33.3363 39.2799 33.5893L24.6656 41.8937L24.6691 41.9006Z" fill="#4BC5DB"/>
<path d="M39.7729 13.8786V14.3515C39.9875 14.3515 40.1752 14.207 40.2301 13.9995C40.2849 13.7919 40.1931 13.5735 40.0065 13.4675L39.7729 13.8786ZM25.1586 5.57428L24.9244 5.98512L24.925 5.98544L25.1586 5.57428ZM22.8485 5.57428L23.0821 5.98546L23.0827 5.98512L22.8485 5.57428ZM8.23074 13.8786L7.99714 13.4674L7.99653 13.4678L8.23074 13.8786ZM8.23074 34.4246L7.99653 34.8354L7.9971 34.8358L8.23074 34.4246ZM22.845 42.7289L22.6113 43.1401L22.6123 43.1406L22.845 42.7289ZM25.1551 42.7289L24.9215 42.3178L24.9194 42.319L25.1551 42.7289ZM39.7693 34.4246L40.003 34.8358L40.0035 34.8354L39.7693 34.4246ZM39.7693 13.8786V13.4057C39.5548 13.4057 39.3672 13.5501 39.3122 13.7575C39.2573 13.9648 39.3488 14.1832 39.5351 14.2895L39.7693 13.8786ZM24.6691 41.9006L24.9013 42.3126C25.1219 42.1882 25.2054 41.9122 25.0908 41.6864L24.6691 41.9006ZM23.3345 41.9006L23.1008 42.3118L23.1023 42.3126L23.3345 41.9006ZM8.72023 33.5962L8.95387 33.1851L8.95242 33.1843L8.72023 33.5962ZM8.72023 14.7139L8.95394 15.125L8.95394 15.125L8.72023 14.7139ZM23.3345 6.4061L23.5682 6.81723L23.5708 6.81572L23.3345 6.4061ZM24.6656 6.4061L24.4293 6.81573L24.432 6.81726L24.6656 6.4061ZM39.2799 14.7104L39.0462 15.1216L39.0477 15.1224L39.2799 14.7104ZM39.8891 32.8233L39.5443 33.147C39.6601 33.2704 39.833 33.3225 39.9977 33.2836C40.1624 33.2447 40.2937 33.1209 40.3422 32.9587L39.8891 32.8233ZM39.0017 32.1232L39.2358 31.7123L39.2353 31.7121L39.0017 32.1232ZM25.9122 24.6854L25.6786 25.0965L25.6786 25.0965L25.9122 24.6854ZM22.0773 24.6854L22.3109 25.0965L22.3109 25.0965L22.0773 24.6854ZM9.90345 31.6033L9.66981 31.1922C9.55968 31.2548 9.47926 31.3589 9.44657 31.4813C9.41388 31.6036 9.43164 31.734 9.49588 31.8432L9.90345 31.6033ZM10.3929 32.4352L9.98537 32.675C10.1164 32.8977 10.4019 32.974 10.6266 32.8463L10.3929 32.4352ZM22.5668 25.5172L22.8004 25.9283L22.8012 25.9279L22.5668 25.5172ZM25.4263 25.5172L25.1918 25.9279L25.1926 25.9283L25.4263 25.5172ZM38.5157 32.955L38.282 33.3662L38.2839 33.3672L38.5157 32.955ZM39.2799 33.5893L39.5135 34.0005C39.6359 33.9309 39.721 33.8104 39.7455 33.6717C39.7701 33.533 39.7315 33.3906 39.6404 33.2832L39.2799 33.5893ZM24.6656 41.8937L24.432 41.4825C24.2124 41.6073 24.1296 41.8826 24.244 42.1078L24.6656 41.8937ZM40.0065 13.4675L25.3923 5.16311L24.925 5.98544L39.5392 14.2898L40.0065 13.4675ZM25.3928 5.16344C24.5363 4.67517 23.4708 4.67517 22.6143 5.16344L23.0827 5.98512C23.6489 5.66236 24.3582 5.66236 24.9244 5.98512L25.3928 5.16344ZM22.6149 5.16309L7.99714 13.4674L8.46433 14.2898L23.0821 5.98546L22.6149 5.16309ZM7.99653 13.4678C7.14038 13.9558 6.60278 14.8666 6.60278 15.8473H7.54859C7.54859 15.2128 7.8984 14.6124 8.46494 14.2895L7.99653 13.4678ZM6.60278 15.8473V32.456H7.54859V15.8473H6.60278ZM6.60278 32.456C6.60278 33.4404 7.14074 34.3476 7.99653 34.8354L8.46494 34.0138C7.89805 33.6906 7.54859 33.0935 7.54859 32.456H6.60278ZM7.9971 34.8358L22.6113 43.1401L23.0786 42.3178L8.46438 34.0134L7.9971 34.8358ZM22.6123 43.1406C23.0391 43.3819 23.5207 43.5069 24 43.5069V42.561C23.6835 42.561 23.3622 42.4781 23.0777 42.3172L22.6123 43.1406ZM24 43.5069C24.4767 43.5069 24.96 43.3866 25.3908 43.1389L24.9194 42.319C24.6388 42.4803 24.3192 42.561 24 42.561V43.5069ZM25.3887 43.1401L40.003 34.8358L39.5357 34.0134L24.9215 42.3178L25.3887 43.1401ZM40.0035 34.8354C40.8597 34.3474 41.3973 33.4366 41.3973 32.456H40.4515C40.4515 33.0905 40.1017 33.6908 39.5351 34.0138L40.0035 34.8354ZM41.3973 32.456V15.8473H40.4515V32.456H41.3973ZM41.3973 15.8473C41.3973 14.8628 40.8593 13.9556 40.0035 13.4678L39.5351 14.2895C40.102 14.6126 40.4515 15.2097 40.4515 15.8473H41.3973ZM39.7693 14.3515H39.7729V13.4057H39.7693V14.3515ZM24.4369 41.4886C24.1691 41.6396 23.8345 41.6396 23.5667 41.4886L23.1023 42.3126C23.6584 42.626 24.3452 42.626 24.9013 42.3126L24.4369 41.4886ZM23.5681 41.4894L8.95386 33.1851L8.48659 34.0074L23.1008 42.3118L23.5681 41.4894ZM8.95242 33.1843C8.6892 33.0359 8.52757 32.7567 8.52757 32.4594H7.58175C7.58175 33.0979 7.92722 33.6921 8.48803 34.0082L8.95242 33.1843ZM8.52757 32.4594V15.8507H7.58175V32.4594H8.52757ZM8.52757 15.8507C8.52757 15.5554 8.69116 15.2744 8.95394 15.125L8.48652 14.3028C7.93231 14.6178 7.58175 15.2103 7.58175 15.8507H8.52757ZM8.95394 15.125L23.5682 6.81722L23.1008 5.99498L8.48652 14.3028L8.95394 15.125ZM23.5708 6.81572C23.7004 6.74095 23.8508 6.70224 24 6.70224V5.75643C23.6915 5.75643 23.377 5.83556 23.0981 5.99648L23.5708 6.81572ZM24 6.70224C24.1493 6.70224 24.2997 6.74095 24.4293 6.81572L24.9019 5.99648C24.623 5.83556 24.3086 5.75643 24 5.75643V6.70224ZM24.432 6.81726L39.0462 15.1216L39.5135 14.2993L24.8992 5.99493L24.432 6.81726ZM39.0477 15.1224C39.3109 15.2708 39.4725 15.55 39.4725 15.8473H40.4183C40.4183 15.2088 40.0729 14.6145 39.512 14.2985L39.0477 15.1224ZM39.4725 15.8473V32.456H40.4183V15.8473H39.4725ZM39.4725 32.456C39.4725 32.5282 39.4601 32.6071 39.436 32.6879L40.3422 32.9587C40.3885 32.8039 40.4183 32.6333 40.4183 32.456H39.4725ZM40.2338 32.4997C39.9452 32.1922 39.6123 31.9269 39.2358 31.7123L38.7675 32.5341C39.0601 32.7008 39.3188 32.9068 39.5443 33.147L40.2338 32.4997ZM39.2353 31.7121L26.1459 24.2742L25.6786 25.0965L38.768 32.5344L39.2353 31.7121ZM26.1459 24.2742C24.8178 23.5195 23.1718 23.5195 21.8437 24.2742L22.3109 25.0965C23.3493 24.5065 24.6402 24.5065 25.6786 25.0965L26.1459 24.2742ZM21.8437 24.2742L9.66981 31.1922L10.1371 32.0145L22.3109 25.0965L21.8437 24.2742ZM9.49588 31.8432L9.98537 32.675L10.8005 32.1953L10.311 31.3635L9.49588 31.8432ZM10.6266 32.8463L22.8004 25.9283L22.3331 25.106L10.1593 32.024L10.6266 32.8463ZM22.8012 25.9279C23.5363 25.5083 24.4567 25.5083 25.1918 25.9279L25.6607 25.1065C24.635 24.521 23.358 24.521 22.3323 25.1065L22.8012 25.9279ZM25.1926 25.9283L38.2821 33.3662L38.7493 32.5439L25.6599 25.106L25.1926 25.9283ZM38.2839 33.3672C38.5277 33.5044 38.7384 33.6822 38.9194 33.8954L39.6404 33.2832C39.3917 32.9904 39.0953 32.7385 38.7475 32.5429L38.2839 33.3672ZM39.0462 33.1781L24.432 41.4825L24.8992 42.3048L39.5135 34.0005L39.0462 33.1781ZM24.244 42.1078L24.2475 42.1148L25.0908 41.6864L25.0872 41.6795L24.244 42.1078Z" fill="#4BC5DB"/>
</svg>
